<svg xmlns:dc="http://purl.org/dc/elements/1.1/" xmlns:cc="http://creativecommons.org/ns#" xmlns:rdf="http://www.w3.org/1999/02/22-rdf-syntax-ns#" xmlns:svg="http://www.w3.org/2000/svg" xmlns="http://www.w3.org/2000/svg" xmlns:sodipodi="http://sodipodi.sourceforge.net/DTD/sodipodi-0.dtd" xmlns:inkscape="http://www.inkscape.org/namespaces/inkscape" viewBox="0 0 32 40.00000125" version="1.1" x="0px" y="0px"><g transform="translate(0,-1020.3622)"><path d="m 25.206911,1041.0854 c 0.418491,0.1197 0.825756,0.4257 1.091434,0.9082 a 0.49996675,0.50013316 0 0 1 0.0078,0.018 c 0.461021,0.9191 0.05389,2.0519 -0.886424,2.4687 l -6.499789,2.879 c -1.866513,0.827 -3.910647,0.9049 -5.871093,0.5566 l -7.1323923,-1.2656 a 0.50080344,0.50097013 0 1 1 0.1757236,-0.9864 l 7.1304387,1.2676 c 1.817258,0.3229 3.652786,0.2405 5.29316,-0.4863 l 6.497838,-2.8789 c 0.429197,-0.1903 0.602312,-0.6776 0.400257,-1.0957 -0.152144,-0.2707 -0.307716,-0.3739 -0.482261,-0.4238 -0.177192,-0.051 -0.391817,-0.034 -0.58379,0.029 -0.973717,0.3423 -1.947233,0.6851 -2.920903,1.0274 a 0.49996675,0.50013316 0 1 1 -0.331921,-0.9434 c 0.977049,-0.3435 1.953663,-0.6878 2.930665,-1.0312 a 0.49996675,0.50013316 0 0 1 0.0098,0 c 0.342388,-0.1123 0.752994,-0.1587 1.171485,-0.039 z" style="color:#000000;font-style:normal;font-variant:normal;font-weight:normal;font-stretch:normal;font-size:medium;line-height:normal;font-family:sans-serif;text-indent:0;text-align:start;text-decoration:none;text-decoration-line:none;text-decoration-style:solid;text-decoration-color:#000000;letter-spacing:normal;word-spacing:normal;text-transform:none;direction:ltr;writing-mode:lr-tb;baseline-shift:baseline;text-anchor:start;white-space:normal;clip-rule:nonzero;display:inline;overflow:visible;visibility:visible;opacity:1;isolation:auto;mix-blend-mode:normal;color-interpolation:sRGB;color-interpolation-filters:linearRGB;solid-color:#000000;solid-opacity:1;fill:#000000;fill-opacity:1;fill-rule:evenodd;stroke:none;stroke-width:1.0001663px;stroke-linecap:round;stroke-linejoin:round;stroke-miterlimit:4;stroke-dasharray:none;stroke-dashoffset:0;stroke-opacity:1;color-rendering:auto;image-rendering:auto;shape-rendering:auto;text-rendering:auto;enable-background:accumulate"/><path d="m 9.2669045,1038.7846 c 1.0502165,-0.1308 2.1149935,0.082 3.0341465,0.6055 l 2.682701,1.5273 3.200107,0 c 0.997648,10e-5 1.821271,0.8114 1.833373,1.8086 l 0.0078,0.3536 a 0.49996675,0.50013316 0 0 1 0,0.01 c 0.01215,0.9963 -0.803451,1.8183 -1.800183,1.8183 l -5.076435,0 a 0.49996675,0.50013316 0 1 1 0,-1 l 5.076435,0 c 0.453934,0 0.806,-0.3569 0.800515,-0.8066 l -0.0078,-0.3535 a 0.49996675,0.50013316 0 0 1 0,-0.01 c -0.0056,-0.4593 -0.370294,-0.8203 -0.833706,-0.8204 l -3.332876,0 a 0.49996675,0.50013316 0 0 1 -0.246011,-0.064 l -2.797897,-1.5938 c -0.731612,-0.4167 -1.578826,-0.5847 -2.415212,-0.4804 l -3.1962022,0.3965 a 0.49996675,0.50013316 0 1 1 -0.1249584,-0.9922 z" style="color:#000000;font-style:normal;font-variant:normal;font-weight:normal;font-stretch:normal;font-size:medium;line-height:normal;font-family:sans-serif;text-indent:0;text-align:start;text-decoration:none;text-decoration-line:none;text-decoration-style:solid;text-decoration-color:#000000;letter-spacing:normal;word-spacing:normal;text-transform:none;direction:ltr;writing-mode:lr-tb;baseline-shift:baseline;text-anchor:start;white-space:normal;clip-rule:nonzero;display:inline;overflow:visible;visibility:visible;opacity:1;isolation:auto;mix-blend-mode:normal;color-interpolation:sRGB;color-interpolation-filters:linearRGB;solid-color:#000000;solid-opacity:1;fill:#000000;fill-opacity:1;fill-rule:evenodd;stroke:none;stroke-width:1.0001663px;stroke-linecap:round;stroke-linejoin:round;stroke-miterlimit:4;stroke-dasharray:none;stroke-dashoffset:0;stroke-opacity:1;color-rendering:auto;image-rendering:auto;shape-rendering:auto;text-rendering:auto;enable-background:accumulate"/><path style="color:#000000;font-style:normal;font-variant:normal;font-weight:normal;font-stretch:normal;font-size:medium;line-height:normal;font-family:sans-serif;text-indent:0;text-align:start;text-decoration:none;text-decoration-line:none;text-decoration-style:solid;text-decoration-color:#000000;letter-spacing:normal;word-spacing:normal;text-transform:none;direction:ltr;writing-mode:lr-tb;baseline-shift:baseline;text-anchor:start;white-space:normal;clip-rule:nonzero;display:inline;overflow:visible;visibility:visible;opacity:1;isolation:auto;mix-blend-mode:normal;color-interpolation:sRGB;color-interpolation-filters:linearRGB;solid-color:#000000;solid-opacity:1;fill:#000000;fill-opacity:1;fill-rule:evenodd;stroke:none;stroke-width:1;stroke-linecap:round;stroke-linejoin:round;stroke-miterlimit:4;stroke-dasharray:none;stroke-dashoffset:0;stroke-opacity:1;color-rendering:auto;image-rendering:auto;shape-rendering:auto;text-rendering:auto;enable-background:accumulate" d="m 15.2821,1024.6287 c -1.0739,0.076 -2.1333,0.402 -3.3246,0.8975 -0.3121,0.1302 -0.454,0.3422 -0.454,0.6764 l 0,8.1698 c 0,0.223 0.1023,0.4895 0.3309,0.6337 0.2285,0.1441 0.5091,0.1246 0.7134,0.035 a 0.50295705,0.49715975 0 0 0 0.022,-0.01 c 2.0718,-1.0236 3.5495,-1.0814 5.7441,-0.1896 a 0.50295705,0.49715975 0 0 0 0.3863,0 c 2.2228,-0.9245 3.5308,-0.7744 5.7563,0.1979 0.2049,0.09 0.4852,0.109 0.7144,-0.035 0.2295,-0.1444 0.3327,-0.4107 0.3327,-0.6346 l 0,-8.0648 c 0,-0.3113 -0.1036,-0.4911 -0.3835,-0.6439 -2.2575,-1.2336 -4.1799,-1.2627 -6.6097,-0.485 -1.1693,-0.4452 -2.2097,-0.6195 -3.2279,-0.5472 z m 0.052,0.9644 c 0.9189,-0.069 1.8366,0.096 2.9806,0.5575 a 0.50295705,0.49715975 0 0 0 0.3507,0.01 c 2.3223,-0.7724 3.7879,-0.7711 5.8324,0.3103 l 0,7.5268 c -2.0971,-0.8536 -3.8148,-0.9917 -5.9941,-0.1338 -2.1453,-0.827 -3.9722,-0.7749 -5.9941,0.1264 l 0,-7.6077 c 1.0669,-0.4357 1.9527,-0.7242 2.8245,-0.7898 z m -3.193,8.5396 c 10e-5,-1e-4 0,0 0,0 -0.01,0 -0.015,0.01 -0.023,0.01 z"/><path d="m 18.4955,1025.6045 a 0.50004997,0.50004997 0 0 0 -0.4922,0.5058 l 0,2 a 0.50004997,0.50004997 0 1 0 1,0 l 0,-2 a 0.50004997,0.50004997 0 0 0 -0.5078,-0.5058 z" style="color:#000000;font-style:normal;font-variant:normal;font-weight:normal;font-stretch:normal;font-size:medium;line-height:normal;font-family:sans-serif;text-indent:0;text-align:start;text-decoration:none;text-decoration-line:none;text-decoration-style:solid;text-decoration-color:#000000;letter-spacing:normal;word-spacing:normal;text-transform:none;direction:ltr;writing-mode:lr-tb;baseline-shift:baseline;text-anchor:start;white-space:normal;clip-rule:nonzero;display:inline;overflow:visible;visibility:visible;opacity:1;isolation:auto;mix-blend-mode:normal;color-interpolation:sRGB;color-interpolation-filters:linearRGB;solid-color:#000000;solid-opacity:1;fill:#000000;fill-opacity:1;fill-rule:evenodd;stroke:none;stroke-width:0.99999994;stroke-linecap:round;stroke-linejoin:round;stroke-miterlimit:4;stroke-dasharray:none;stroke-dashoffset:0;stroke-opacity:1;color-rendering:auto;image-rendering:auto;shape-rendering:auto;text-rendering:auto;enable-background:accumulate"/><path style="display:inline;opacity:1;fill:#000000;fill-opacity:1;stroke:none;stroke-width:1;stroke-linecap:square;stroke-linejoin:miter;stroke-miterlimit:4;stroke-dasharray:none;stroke-dashoffset:0;stroke-opacity:1" d="m 19.0033,1029.8612 c 0,0.2761 -0.2239,0.5 -0.5,0.5 -0.2762,0 -0.5,-0.2239 -0.5,-0.5 0,-0.2761 0.2238,-0.5 0.5,-0.5 0.2761,0 0.5,0.2239 0.5,0.5 z"/><path d="m 18.4955,1031.1045 a 0.50005,0.50005 0 0 0 -0.4922,0.5058 l 0,2.5 a 0.50005,0.50005 0 1 0 1,0 l 0,-2.5 a 0.50005,0.50005 0 0 0 -0.5078,-0.5058 z" style="color:#000000;font-style:normal;font-variant:normal;font-weight:normal;font-stretch:normal;font-size:medium;line-height:normal;font-family:sans-serif;text-indent:0;text-align:start;text-decoration:none;text-decoration-line:none;text-decoration-style:solid;text-decoration-color:#000000;letter-spacing:normal;word-spacing:normal;text-transform:none;direction:ltr;writing-mode:lr-tb;baseline-shift:baseline;text-anchor:start;white-space:normal;clip-rule:nonzero;display:inline;overflow:visible;visibility:visible;opacity:1;isolation:auto;mix-blend-mode:normal;color-interpolation:sRGB;color-interpolation-filters:linearRGB;solid-color:#000000;solid-opacity:1;fill:#000000;fill-opacity:1;fill-rule:evenodd;stroke:none;stroke-width:1px;stroke-linecap:round;stroke-linejoin:round;stroke-miterlimit:4;stroke-dasharray:none;stroke-dashoffset:0;stroke-opacity:1;color-rendering:auto;image-rendering:auto;shape-rendering:auto;text-rendering:auto;enable-background:accumulate"/></g><text x="0" y="47.000001" fill="#000000" font-size="5px" font-weight="bold" font-family="'Helvetica Neue', Helvetica, Arial-Unicode, Arial, Sans-serif">Created by P Thanga Vignesh</text><text x="0" y="52.000001" fill="#000000" font-size="5px" font-weight="bold" font-family="'Helvetica Neue', Helvetica, Arial-Unicode, Arial, Sans-serif">from the Noun Project</text></svg>