<svg width="25" height="24" viewBox="0 0 25 24" fill="none" xmlns="http://www.w3.org/2000/svg">
<g id="24 / symbols / linkedin">
<path id="icon" fill-rule="evenodd" clip-rule="evenodd" d="M4.5343 2H20.5343C21.6389 2 22.5343 2.89543 22.5343 4V20C22.5343 21.1046 21.6389 22 20.5343 22H4.5343C3.42973 22 2.5343 21.1046 2.5343 20V4C2.5343 2.89543 3.42973 2 4.5343 2ZM4.5343 4V20H20.5343V4H4.5343ZM13.5343 9C13.0166 9 12.4696 9.15826 11.9865 9.45215L11.5343 9H10.5343V16H12.5343V12C12.5343 11.4243 13.1283 11 13.5343 11H14.5343C14.9403 11 15.5343 11.4243 15.5343 12V16H17.5343V12C17.5343 10.1472 15.9283 9 14.5343 9H13.5343ZM8.5343 8C9.08659 8 9.5343 7.55228 9.5343 7C9.5343 6.44772 9.08659 6 8.5343 6C7.98202 6 7.5343 6.44772 7.5343 7C7.5343 7.55228 7.98202 8 8.5343 8ZM7.5343 9V16H9.5343V9H7.5343Z" fill="#273238"/>
</g>
</svg>
